<?xml version="1.0" encoding="UTF-8" standalone="no"?>
<svg
   xmlns:dc="http://purl.org/dc/elements/1.1/"
   xmlns:cc="http://creativecommons.org/ns#"
   xmlns:rdf="http://www.w3.org/1999/02/22-rdf-syntax-ns#"
   xmlns:svg="http://www.w3.org/2000/svg"
   xmlns="http://www.w3.org/2000/svg"
   xmlns:sodipodi="http://sodipodi.sourceforge.net/DTD/sodipodi-0.dtd"
   xmlns:inkscape="http://www.inkscape.org/namespaces/inkscape"
   version="1.1"
   viewBox="0.0 0.0 1023.9606299212599 720.8976377952756"
   fill="none"
   stroke="none"
   stroke-linecap="square"
   stroke-miterlimit="10"
   id="svg2"
   inkscape:version="0.92.1 r15371"
   width="100%"
   height="100%"
   sodipodi:docname="Method2.v2.svg"
   inkscape:export-filename="/home/shaunak/ShaunakPublications/Trento2015/Figures/Trento/Method2.png"
   inkscape:export-xdpi="600"
   inkscape:export-ydpi="600">
  <metadata
     id="metadata155">
    <rdf:RDF>
      <cc:Work
         rdf:about="">
        <dc:format>image/svg+xml</dc:format>
        <dc:type
           rdf:resource="http://purl.org/dc/dcmitype/StillImage" />
        <dc:title />
      </cc:Work>
    </rdf:RDF>
  </metadata>
  <defs
     id="defs153">
    <marker
       inkscape:stockid="Arrow1Lend"
       orient="auto"
       refY="0.0"
       refX="0.0"
       id="Arrow1Lend"
       style="overflow:visible;">
      <path
         id="path4044"
         d="M 0.0,0.0 L 5.0,-5.0 L -12.5,0.0 L 5.0,5.0 L 0.0,0.0 z "
         style="fill-rule:evenodd;stroke:#000000;stroke-width:1.0pt;"
         transform="scale(0.8) rotate(180) translate(12.5,0)" />
    </marker>
    <marker
       inkscape:stockid="Arrow2Lend"
       orient="auto"
       refY="0"
       refX="0"
       id="marker7838"
       style="overflow:visible">
      <path
         inkscape:connector-curvature="0"
         id="path7840"
         style="fill-rule:evenodd;stroke-width:0.625;stroke-linejoin:round"
         d="M 8.7185878,4.0337352 -2.2072895,0.01601326 8.7185884,-4.0017078 c -1.7454984,2.3720609 -1.7354408,5.6174519 -6e-7,8.035443 z"
         transform="matrix(-1.1,0,0,-1.1,-1.1,0)" />
    </marker>
  </defs>
  <sodipodi:namedview
     pagecolor="#ffffff"
     bordercolor="#666666"
     borderopacity="1"
     objecttolerance="10"
     gridtolerance="10"
     guidetolerance="10"
     inkscape:pageopacity="0"
     inkscape:pageshadow="2"
     inkscape:window-width="1920"
     inkscape:window-height="1001"
     id="namedview151"
     showgrid="false"
     inkscape:zoom="1.6131494"
     inkscape:cx="400.83829"
     inkscape:cy="469.26837"
     inkscape:window-x="-9"
     inkscape:window-y="-9"
     inkscape:window-maximized="1"
     inkscape:current-layer="svg2" />
  <clipPath
     id="p.0">
    <path
       d="m0 0l1023.96063 0l0 720.89764l-1023.96063 0l0 -720.89764z"
       clip-rule="nonzero"
       id="path5" />
  </clipPath>
  <rect
     style="fill:none;stroke:#d6d7ef;stroke-width:2.29515266;stroke-linecap:round;stroke-linejoin:bevel;stroke-miterlimit:10;stroke-opacity:1;stroke-dasharray:none;stroke-dashoffset:0"
     id="rect5067"
     width="527.17078"
     height="219.75119"
     x="184.25009"
     y="96.850037" />
  <path
     style="stroke:#55679e;stroke-width:1.10292435000000011;stroke-linecap:butt;stroke-linejoin:round;stroke-opacity:1;stroke-dasharray:4.41169734999999985, 3.30877301999999984"
     inkscape:connector-curvature="0"
     id="path135"
     d="m 174.05721,202.72076 -18.69653,0 0,180.48648 842.89165,0 0,-180.40986 -17.96283,0" />
  <path
     style="fill:#000000;fill-opacity:0;fill-rule:nonzero"
     inkscape:connector-curvature="0"
     id="path9"
     d="m 0,0 1023.9606,0 0,720.89764 -1023.9606,0 z" />
  <path
     style="fill:#000000;fill-opacity:0;fill-rule:nonzero"
     inkscape:connector-curvature="0"
     id="path11"
     d="m 13.43832,165.72441 131.02362,0 0,73.88976 -131.02362,0 z" />
  <path
     style="fill:#000000;fill-opacity:0;fill-rule:nonzero"
     inkscape:connector-curvature="0"
     id="path21"
     d="m 194.16269,165.72441 112.85037,0 0,73.88976 -112.85037,0 z" />
  <path
     style="fill:#000000;fill-opacity:0;fill-rule:nonzero"
     inkscape:connector-curvature="0"
     id="path31"
     d="m 331.00262,165.72441 108.69293,0 0,73.88976 -108.69293,0 z" />
  <path
     style="fill:#000000;fill-opacity:0;fill-rule:nonzero"
     inkscape:connector-curvature="0"
     id="path41"
     d="m 463.68506,165.72441 108.69287,0 0,73.88976 -108.69287,0 z" />
  <path
     style="fill:#000000;fill-opacity:0;fill-rule:nonzero"
     inkscape:connector-curvature="0"
     id="path51"
     d="m 596.36755,165.72441 108.69293,0 0,73.88976 -108.69293,0 z" />
  <path
     style="fill:#000000;fill-opacity:0;fill-rule:nonzero"
     inkscape:connector-curvature="0"
     id="path59"
     d="m 729.04987,165.72441 108.69293,0 0,73.88976 -108.69293,0 z" />
  <path
     style="fill:#000000;fill-opacity:0;fill-rule:nonzero"
     inkscape:connector-curvature="0"
     id="path69"
     d="m 861.7323,164.33858 108.69287,0 0,76.66142 -108.69287,0 z" />
  <path
     style="fill:#000000;fill-opacity:0;fill-rule:nonzero"
     inkscape:connector-curvature="0"
     id="path79"
     d="m 174.00803,95.267715 806.3307,0 0,214.803145 -806.3307,0 z" />
  <path
     style="stroke:#000000;stroke-width:1.11076999;stroke-linecap:butt;stroke-linejoin:round"
     inkscape:connector-curvature="0"
     id="path81"
     d="m 174.06342,67.269384 806.21992,0 0,265.062686 -806.21992,0 z" />
  <path
     style="fill:#000000;fill-opacity:0;fill-rule:nonzero"
     inkscape:connector-curvature="0"
     id="path83"
     d="m 307.01306,202.6693 24,0" />
  <path
     style="fill:#000000;fill-opacity:0;fill-rule:nonzero"
     inkscape:connector-curvature="0"
     id="path89"
     d="m 439.69556,202.6693 24,0" />
  <path
     style="fill:#000000;fill-opacity:0;fill-rule:nonzero"
     inkscape:connector-curvature="0"
     id="path95"
     d="m 572.3779,202.6693 24,0" />
  <path
     style="fill:#000000;fill-opacity:0;fill-rule:nonzero"
     inkscape:connector-curvature="0"
     id="path101"
     d="m 705.0605,202.6693 24,0" />
  <path
     style="fill:#000000;fill-opacity:0;fill-rule:nonzero"
     inkscape:connector-curvature="0"
     id="path107"
     d="m 837.7428,202.6693 24,0" />
  <path
     style="fill:#000000;fill-opacity:0;fill-rule:nonzero"
     inkscape:connector-curvature="0"
     id="path113"
     d="m 144.46194,202.6693 49.70079,0" />
  <path
     style="stroke:#000000;stroke-width:2;stroke-linecap:butt;stroke-linejoin:round;stroke-miterlimit:10;stroke-dasharray:none"
     inkscape:connector-curvature="0"
     id="path115"
     d="m 144.46194,202.6693 43.70079,0" />
  <path
     style="fill:#000000;fill-rule:evenodd;stroke:#000000;stroke-width:3.99999999;stroke-linecap:butt;stroke-miterlimit:10;stroke-dasharray:none"
     inkscape:connector-curvature="0"
     id="path117"
     d="m 187.50522,204.10186 4.53809,-1.65173 -4.53809,-1.65174 z" />
  <path
     style="fill:#000000;fill-opacity:0;fill-rule:nonzero"
     inkscape:connector-curvature="0"
     id="path119"
     d="m -1.535433,33.312336 183.622043,0 0,73.889774 -183.622043,0 z" />
  <path
     style="fill:#000000;fill-opacity:0;fill-rule:nonzero"
     inkscape:connector-curvature="0"
     id="path129"
     d="m 432.89764,114.21785 302.96063,0 0,42.70866 -302.96063,0 z" />
  <path
     style="fill:#000000;fill-rule:nonzero"
     inkscape:connector-curvature="0"
     id="path131"
     d="m 443.99931,80.766135 q 0,0.85937 -0.35938,1.51562 -0.34375,0.64063 -0.98437,1.07813 -0.625,0.42187 -1.51563,0.64062 -0.875,0.21875 -1.95312,0.21875 -0.46875,0 -0.95313,-0.0469 -0.48437,-0.0312 -0.92187,-0.0937 -0.4375,-0.0469 -0.82813,-0.125 -0.39062,-0.0781 -0.70312,-0.15625 l 0,-1.59375 q 0.6875,0.25 1.54687,0.40625 0.875,0.14062 1.98438,0.14062 0.79687,0 1.35937,-0.125 0.5625,-0.125 0.92188,-0.35937 0.35937,-0.25 0.51562,-0.59375 0.17188,-0.35938 0.17188,-0.8125 0,-0.5 -0.28125,-0.84375 -0.26563,-0.34375 -0.71875,-0.60938 -0.4375,-0.28125 -1.01563,-0.5 -0.57812,-0.23437 -1.17187,-0.46875 -0.59375,-0.25 -1.17188,-0.53125 -0.5625,-0.28125 -1.01562,-0.67187 -0.4375,-0.39063 -0.71875,-0.90625 -0.26563,-0.51563 -0.26563,-1.23438 0,-0.625 0.26563,-1.21875 0.26562,-0.60937 0.8125,-1.07812 0.54687,-0.46875 1.40625,-0.75 0.85937,-0.296884 2.04687,-0.296884 0.29688,0 0.65625,0.0312 0.35938,0.0312 0.71875,0.0781 0.375,0.0469 0.73438,0.125 0.35937,0.0625 0.65625,0.125 l 0,1.48437 q -0.71875,-0.20312 -1.4375,-0.29687 -0.70313,-0.10938 -1.375,-0.10938 -1.42188,0 -2.09375,0.46875 -0.65625,0.46875 -0.65625,1.26563 0,0.5 0.26562,0.85937 0.28125,0.34375 0.71875,0.625 0.45313,0.28125 1.01563,0.51563 0.57812,0.21875 1.17187,0.46875 0.59375,0.23437 1.15625,0.51562 0.57813,0.28125 1.01563,0.6875 0.45312,0.39063 0.71875,0.92188 0.28125,0.51562 0.28125,1.25 z m 9.99167,3.15625 q -0.54688,0.14062 -1.125,0.1875 -0.57813,0.0625 -1.1875,0.0625 -1.75,0 -2.625,-0.78125 -0.85938,-0.79688 -0.85938,-2.4375 l 0,-4.85938 -2.60937,0 0,-1.35937 2.60937,0 0,-2.5625 1.625,-0.421884 0,2.984384 4.17188,0 0,1.35937 -4.17188,0 0,4.71875 q 0,1 0.53125,1.5 0.53125,0.5 1.5625,0.5 0.45313,0 0.98438,-0.0625 0.53125,-0.0781 1.09375,-0.21875 l 0,1.39063 z m 8.74167,0.125 -0.0312,-1.25 q -0.76563,0.75 -1.54688,1.09375 -0.78125,0.32812 -1.65625,0.32812 -0.79687,0 -1.35937,-0.20312 -0.5625,-0.20313 -0.9375,-0.5625 -0.35938,-0.35938 -0.53125,-0.84375 -0.17188,-0.48438 -0.17188,-1.04688 0,-1.40625 1.04688,-2.1875 1.04687,-0.79687 3.07812,-0.79687 l 1.9375,0 0,-0.82813 q 0,-0.8125 -0.53125,-1.3125 -0.53125,-0.5 -1.60937,-0.5 -0.79688,0 -1.5625,0.1875 -0.76563,0.17188 -1.57813,0.48438 l 0,-1.45313 q 0.29688,-0.10937 0.67188,-0.21875 0.39062,-0.10937 0.79687,-0.1875 0.42188,-0.0781 0.875,-0.125 0.45313,-0.0625 0.92188,-0.0625 0.84375,0 1.51562,0.1875 0.6875,0.1875 1.15625,0.57813 0.46875,0.375 0.71875,0.95312 0.25,0.5625 0.25,1.34375 l 0,6.42188 -1.45312,0 z m -0.17188,-4.23438 -2.0625,0 q -0.59375,0 -1.03125,0.125 -0.4375,0.10938 -0.71875,0.34375 -0.28125,0.21875 -0.42187,0.53125 -0.125,0.29688 -0.125,0.6875 0,0.28125 0.0781,0.53125 0.0937,0.23438 0.28125,0.42188 0.1875,0.1875 0.48438,0.3125 0.29687,0.10937 0.71875,0.10937 0.5625,0 1.28125,-0.34375 0.71875,-0.34375 1.51562,-1.07812 l 0,-1.64063 z m 11.67917,3.89063 q -0.625,0.23437 -1.29687,0.34375 -0.65625,0.125 -1.35938,0.125 -2.21875,0 -3.40625,-1.1875 -1.1875,-1.20313 -1.1875,-3.5 0,-1.10938 0.34375,-2 0.34375,-0.90625 0.95313,-1.54688 0.625,-0.64062 1.48437,-0.98437 0.875,-0.34375 1.90625,-0.34375 0.73438,0 1.35938,0.10937 0.625,0.0937 1.20312,0.3125 l 0,1.54688 q -0.59375,-0.3125 -1.23437,-0.45313 -0.625,-0.15625 -1.28125,-0.15625 -0.625,0 -1.1875,0.25 -0.54688,0.23438 -0.96875,0.6875 -0.40625,0.4375 -0.65625,1.07813 -0.23438,0.64062 -0.23438,1.4375 0,1.6875 0.8125,2.53125 0.82813,0.84375 2.28125,0.84375 0.65625,0 1.26563,-0.14063 0.625,-0.15625 1.20312,-0.45312 l 0,1.5 z m 11.39792,0.34375 -2.21875,0 -4.34375,-4.98438 0,4.98438 -1.60937,0 0,-13.109384 1.60937,0 0,8.046884 4.1875,-4.25 2.14063,0 -4.375,4.29687 4.60937,5.01563 z m 9.75729,-5.15625 q 0,0.34375 -0.0156,0.57812 -0.0156,0.23438 -0.0312,0.4375 l -6.53125,0 q 0,1.4375 0.79687,2.20313 0.79688,0.76562 2.29688,0.76562 0.40625,0 0.8125,-0.0312 0.40625,-0.0469 0.78125,-0.0937 0.39062,-0.0625 0.73437,-0.125 0.34375,-0.0781 0.64063,-0.15625 l 0,1.32813 q -0.65625,0.1875 -1.48438,0.29687 -0.82812,0.125 -1.71875,0.125 -1.20312,0 -2.0625,-0.32812 -0.85937,-0.32813 -1.42187,-0.9375 -0.54688,-0.625 -0.8125,-1.51563 -0.26563,-0.89062 -0.26563,-2.03125 0,-0.98437 0.28125,-1.85937 0.29688,-0.875 0.82813,-1.53125 0.54687,-0.67188 1.32812,-1.0625 0.79688,-0.39063 1.79688,-0.39063 0.98437,0 1.73437,0.3125 0.75,0.29688 1.26563,0.85938 0.51562,0.5625 0.78125,1.375 0.26562,0.79687 0.26562,1.78125 z m -1.6875,-0.21875 q 0.0312,-0.625 -0.125,-1.14063 -0.14062,-0.51562 -0.45312,-0.89062 -0.3125,-0.375 -0.78125,-0.57813 -0.45313,-0.20312 -1.07813,-0.20312 -0.51562,0 -0.95312,0.20312 -0.4375,0.20313 -0.76563,0.57813 -0.3125,0.35937 -0.5,0.89062 -0.1875,0.51563 -0.23437,1.14063 l 4.89062,0 z m 3.60105,0.90625 q 0,-1.1875 0.3125,-2.10938 0.32812,-0.92187 0.92187,-1.54687 0.60938,-0.64063 1.4375,-0.96875 0.84375,-0.32813 1.875,-0.32813 0.45313,0 0.875,0.0625 0.4375,0.0469 0.85938,0.17188 l 0,-3.921884 1.625,0 0,13.109384 -1.45313,0 -0.0625,-1.76563 q -0.67187,0.98438 -1.46875,1.46875 -0.78125,0.46875 -1.70312,0.46875 -0.79688,0 -1.40625,-0.32812 -0.59375,-0.34375 -1,-0.95313 -0.40625,-0.60937 -0.60938,-1.45312 -0.20312,-0.85938 -0.20312,-1.90625 z m 1.64062,-0.0937 q 0,1.6875 0.5,2.51562 0.5,0.82813 1.40625,0.82813 0.60938,0 1.29688,-0.54688 0.6875,-0.54687 1.4375,-1.625 l 0,-4.3125 q -0.40625,-0.1875 -0.89063,-0.28125 -0.48437,-0.10937 -0.95312,-0.10937 -1.3125,0 -2.0625,0.85937 -0.73438,0.84375 -0.73438,2.67188 z m 27.10834,1.28125 q 0,0.85937 -0.35937,1.51562 -0.34375,0.64063 -0.98438,1.07813 -0.625,0.42187 -1.51562,0.64062 -0.875,0.21875 -1.95313,0.21875 -0.46875,0 -0.95312,-0.0469 -0.48438,-0.0312 -0.92188,-0.0937 -0.4375,-0.0469 -0.82812,-0.125 -0.39063,-0.0781 -0.70313,-0.15625 l 0,-1.59375 q 0.6875,0.25 1.54688,0.40625 0.875,0.14062 1.98437,0.14062 0.79688,0 1.35938,-0.125 0.5625,-0.125 0.92187,-0.35937 0.35938,-0.25 0.51563,-0.59375 0.17187,-0.35938 0.17187,-0.8125 0,-0.5 -0.28125,-0.84375 -0.26562,-0.34375 -0.71875,-0.60938 -0.4375,-0.28125 -1.01562,-0.5 -0.57813,-0.23437 -1.17188,-0.46875 -0.59375,-0.25 -1.17187,-0.53125 -0.5625,-0.28125 -1.01563,-0.67187 -0.4375,-0.39063 -0.71875,-0.90625 -0.26562,-0.51563 -0.26562,-1.23438 0,-0.625 0.26562,-1.21875 0.26563,-0.60937 0.8125,-1.07812 0.54688,-0.46875 1.40625,-0.75 0.85938,-0.296884 2.04688,-0.296884 0.29687,0 0.65625,0.0312 0.35937,0.0312 0.71875,0.0781 0.375,0.0469 0.73437,0.125 0.35938,0.0625 0.65625,0.125 l 0,1.48437 q -0.71875,-0.20312 -1.4375,-0.29687 -0.70312,-0.10938 -1.375,-0.10938 -1.42187,0 -2.09375,0.46875 -0.65625,0.46875 -0.65625,1.26563 0,0.5 0.26563,0.85937 0.28125,0.34375 0.71875,0.625 0.45312,0.28125 1.01562,0.51563 0.57813,0.21875 1.17188,0.46875 0.59375,0.23437 1.15625,0.51562 0.57812,0.28125 1.01562,0.6875 0.45313,0.39063 0.71875,0.92188 0.28125,0.51562 0.28125,1.25 z m 10.44482,-1.54688 q 0,1.25 -0.34375,2.1875 -0.34375,0.92188 -0.95312,1.53125 -0.60938,0.60938 -1.45313,0.92188 -0.82812,0.29687 -1.8125,0.29687 -0.4375,0 -0.89062,-0.0469 -0.4375,-0.0469 -0.89063,-0.15625 l 0,3.89062 -1.60937,0 0,-13.10937 1.4375,0 0.10937,1.5625 q 0.6875,-0.96875 1.46875,-1.34375 0.79688,-0.39063 1.71875,-0.39063 0.79688,0 1.39063,0.34375 0.60937,0.32813 1.01562,0.9375 0.40625,0.60938 0.60938,1.46875 0.20312,0.85938 0.20312,1.90625 z m -1.64062,0.0781 q 0,-0.73438 -0.10938,-1.34375 -0.10937,-0.60938 -0.34375,-1.04688 -0.23437,-0.4375 -0.59375,-0.6875 -0.35937,-0.25 -0.85937,-0.25 -0.3125,0 -0.625,0.10938 -0.3125,0.0937 -0.65625,0.32812 -0.32813,0.21875 -0.70313,0.59375 -0.375,0.375 -0.8125,0.9375 l 0,4.51563 q 0.45313,0.1875 0.9375,0.29687 0.5,0.0937 0.96875,0.0937 1.3125,0 2.04688,-0.875 0.75,-0.89062 0.75,-2.67187 z m 9.92914,4.75 -0.0312,-1.25 q -0.76563,0.75 -1.54688,1.09375 -0.78125,0.32812 -1.65625,0.32812 -0.79687,0 -1.35937,-0.20312 -0.5625,-0.20313 -0.9375,-0.5625 -0.35938,-0.35938 -0.53125,-0.84375 -0.17188,-0.48438 -0.17188,-1.04688 0,-1.40625 1.04688,-2.1875 1.04687,-0.79687 3.07812,-0.79687 l 1.9375,0 0,-0.82813 q 0,-0.8125 -0.53125,-1.3125 -0.53125,-0.5 -1.60937,-0.5 -0.79688,0 -1.5625,0.1875 -0.76563,0.17188 -1.57813,0.48438 l 0,-1.45313 q 0.29688,-0.10937 0.67188,-0.21875 0.39062,-0.10937 0.79687,-0.1875 0.42188,-0.0781 0.875,-0.125 0.45313,-0.0625 0.92188,-0.0625 0.84375,0 1.51562,0.1875 0.6875,0.1875 1.15625,0.57813 0.46875,0.375 0.71875,0.95312 0.25,0.5625 0.25,1.34375 l 0,6.42188 -1.45312,0 z m -0.17188,-4.23438 -2.0625,0 q -0.59375,0 -1.03125,0.125 -0.4375,0.10938 -0.71875,0.34375 -0.28125,0.21875 -0.42187,0.53125 -0.125,0.29688 -0.125,0.6875 0,0.28125 0.0781,0.53125 0.0937,0.23438 0.28125,0.42188 0.1875,0.1875 0.48438,0.3125 0.29687,0.10937 0.71875,0.10937 0.5625,0 1.28125,-0.34375 0.71875,-0.34375 1.51562,-1.07812 l 0,-1.64063 z m 4.81983,-5.07812 1.48437,0 0.0469,1.71875 q 0.82812,-1 1.625,-1.4375 0.79687,-0.45313 1.625,-0.45313 1.4375,0 2.1875,0.9375 0.75,0.9375 0.6875,2.78125 l -1.625,0 q 0.0156,-1.21875 -0.375,-1.76562 -0.375,-0.5625 -1.10938,-0.5625 -0.32812,0 -0.65625,0.125 -0.32812,0.10937 -0.6875,0.375 -0.34375,0.25 -0.73437,0.65625 -0.39063,0.39062 -0.82813,0.95312 l 0,5.98438 -1.64062,0 0,-9.3125 z m 17.25726,6.76562 q 0,0.5 -0.17188,0.89063 -0.15625,0.39062 -0.45312,0.6875 -0.28125,0.29687 -0.67188,0.51562 -0.375,0.21875 -0.8125,0.35938 -0.42187,0.125 -0.875,0.1875 -0.45312,0.0781 -0.89062,0.0781 -0.95313,0 -1.75,-0.0937 -0.78125,-0.0781 -1.54688,-0.26562 l 0,-1.48438 q 0.8125,0.23438 1.625,0.35938 0.8125,0.10937 1.60938,0.10937 1.15625,0 1.70312,-0.3125 0.5625,-0.3125 0.5625,-0.89062 0,-0.25 -0.0937,-0.45313 -0.0781,-0.20312 -0.3125,-0.375 -0.23437,-0.1875 -0.71875,-0.375 -0.48437,-0.20312 -1.32812,-0.45312 -0.64063,-0.1875 -1.17188,-0.42188 -0.53125,-0.23437 -0.92187,-0.5625 -0.39063,-0.32812 -0.60938,-0.76562 -0.21875,-0.4375 -0.21875,-1.03125 0,-0.39063 0.17188,-0.84375 0.1875,-0.46875 0.625,-0.85938 0.4375,-0.40625 1.17187,-0.67187 0.75,-0.26563 1.85938,-0.26563 0.54687,0 1.21875,0.0625 0.67187,0.0625 1.39062,0.20313 l 0,1.4375 q -0.76562,-0.17188 -1.45312,-0.26563 -0.67188,-0.0937 -1.17188,-0.0937 -0.60937,0 -1.03125,0.0937 -0.40625,0.0937 -0.65625,0.26563 -0.25,0.15625 -0.375,0.375 -0.10937,0.21875 -0.10937,0.46875 0,0.25 0.0937,0.45312 0.10937,0.20313 0.375,0.39063 0.26562,0.1875 0.73437,0.39062 0.46875,0.1875 1.23438,0.40625 0.82812,0.23438 1.39062,0.5 0.5625,0.26563 0.90625,0.59375 0.35938,0.32813 0.51563,0.73438 0.15625,0.40625 0.15625,0.92187 z m 10.75732,-2.60937 q 0,0.34375 -0.0156,0.57812 -0.0156,0.23438 -0.0312,0.4375 l -6.53125,0 q 0,1.4375 0.79687,2.20313 0.79688,0.76562 2.29688,0.76562 0.40625,0 0.8125,-0.0312 0.40625,-0.0469 0.78125,-0.0937 0.39062,-0.0625 0.73437,-0.125 0.34375,-0.0781 0.64063,-0.15625 l 0,1.32813 q -0.65625,0.1875 -1.48438,0.29687 -0.82812,0.125 -1.71875,0.125 -1.20312,0 -2.0625,-0.32812 -0.85937,-0.32813 -1.42187,-0.9375 -0.54688,-0.625 -0.8125,-1.51563 -0.26563,-0.89062 -0.26563,-2.03125 0,-0.98437 0.28125,-1.85937 0.29688,-0.875 0.82813,-1.53125 0.54687,-0.67188 1.32812,-1.0625 0.79688,-0.39063 1.79688,-0.39063 0.98437,0 1.73437,0.3125 0.75,0.29688 1.26563,0.85938 0.51562,0.5625 0.78125,1.375 0.26562,0.79687 0.26562,1.78125 z m -1.6875,-0.21875 q 0.0312,-0.625 -0.125,-1.14063 -0.14062,-0.51562 -0.45312,-0.89062 -0.3125,-0.375 -0.78125,-0.57813 -0.45313,-0.20312 -1.07813,-0.20312 -0.51562,0 -0.95312,0.20312 -0.4375,0.20313 -0.76563,0.57813 -0.3125,0.35937 -0.5,0.89062 -0.1875,0.51563 -0.23437,1.14063 l 4.89062,0 z m 23.20209,5.375 -1.8125,0 -0.84375,-2.64063 -5.04687,0 -0.84375,2.64063 -1.71875,0 4.03125,-12.125 2.26562,0 3.96875,12.125 z m -3.125,-4.125 -2.04687,-6.48438 -2.04688,6.48438 4.09375,0 z m 11.99164,4.125 -1.4375,0 -0.0625,-1.5 q -0.42188,0.48437 -0.79688,0.8125 -0.375,0.3125 -0.75,0.51562 -0.35937,0.1875 -0.73437,0.26563 -0.375,0.0781 -0.79688,0.0781 -1.4375,0 -2.17187,-0.84375 -0.73438,-0.84375 -0.73438,-2.5625 l 0,-6.07812 1.60938,0 0,5.95312 q 0,2.14063 1.625,2.14063 0.29687,0 0.57812,-0.0781 0.28125,-0.0937 0.59375,-0.3125 0.3125,-0.21875 0.65625,-0.57812 0.35938,-0.375 0.8125,-0.95313 l 0,-6.17187 1.60938,0 0,9.3125 z m 10.27295,-0.125 q -0.54688,0.14062 -1.125,0.1875 -0.57813,0.0625 -1.1875,0.0625 -1.75,0 -2.625,-0.78125 -0.85938,-0.79688 -0.85938,-2.4375 l 0,-4.85938 -2.60937,0 0,-1.35937 2.60937,0 0,-2.5625 1.625,-0.421884 0,2.984384 4.17188,0 0,1.35937 -4.17188,0 0,4.71875 q 0,1 0.53125,1.5 0.53125,0.5 1.5625,0.5 0.45313,0 0.98438,-0.0625 0.53125,-0.0781 1.09375,-0.21875 l 0,1.39063 z m 10.86664,-4.60938 q 0,1.09375 -0.3125,2 -0.29688,0.89063 -0.875,1.54688 -0.57813,0.64062 -1.40625,1 -0.82813,0.35937 -1.875,0.35937 -1,0 -1.79688,-0.3125 -0.78125,-0.3125 -1.34375,-0.90625 -0.54687,-0.60937 -0.84375,-1.5 -0.28125,-0.89062 -0.28125,-2.0625 0,-1.07812 0.29688,-1.96875 0.3125,-0.90625 0.875,-1.54687 0.57812,-0.64063 1.40625,-1 0.82812,-0.35938 1.875,-0.35938 1,0 1.79687,0.3125 0.79688,0.3125 1.34375,0.92188 0.5625,0.59375 0.84375,1.48437 0.29688,0.89063 0.29688,2.03125 z m -1.65625,0.0781 q 0,-0.85938 -0.1875,-1.5 -0.1875,-0.65625 -0.54688,-1.07813 -0.34375,-0.4375 -0.85937,-0.65625 -0.5,-0.21875 -1.125,-0.21875 -0.71875,0 -1.23438,0.28125 -0.51562,0.28125 -0.84375,0.76563 -0.32812,0.46875 -0.48437,1.09375 -0.15625,0.625 -0.15625,1.3125 0,0.85937 0.1875,1.51562 0.20312,0.64063 0.54687,1.07813 0.35938,0.42187 0.85938,0.64062 0.5,0.21875 1.125,0.21875 0.73437,0 1.25,-0.28125 0.51562,-0.28125 0.84375,-0.75 0.32812,-0.46875 0.46875,-1.09375 0.15625,-0.64062 0.15625,-1.32812 z m 10.31982,0.35937 -5.54688,0 0,-1.51562 5.54688,0 0,1.51562 z m 11.02289,4.29688 -6.90625,0 0,-12.125 6.90625,0 0,1.39062 -5.25,0 0,3.75 5.03125,0 0,1.40625 -5.03125,0 0,4.17188 5.25,0 0,1.40625 z m 2.97607,-9.3125 1.4375,0 0.0625,1.5 q 0.40625,-0.48438 0.78125,-0.79688 0.39063,-0.32812 0.75,-0.51562 0.375,-0.20313 0.75,-0.28125 0.39063,-0.0781 0.79688,-0.0781 1.4375,0 2.17187,0.85938 0.73438,0.84375 0.73438,2.54687 l 0,6.07813 -1.60938,0 0,-5.95313 q 0,-1.09375 -0.40625,-1.60937 -0.40625,-0.53125 -1.21875,-0.53125 -0.29687,0 -0.57812,0.0937 -0.28125,0.0937 -0.59375,0.3125 -0.29688,0.20312 -0.65625,0.57812 -0.35938,0.375 -0.8125,0.9375 l 0,6.17188 -1.60938,0 0,-9.3125 z m 17.49164,8.96875 q -0.625,0.23437 -1.29688,0.34375 -0.65625,0.125 -1.35937,0.125 -2.21875,0 -3.40625,-1.1875 -1.1875,-1.20313 -1.1875,-3.5 0,-1.10938 0.34375,-2 0.34375,-0.90625 0.95312,-1.54688 0.625,-0.64062 1.48438,-0.98437 0.875,-0.34375 1.90625,-0.34375 0.73437,0 1.35937,0.10937 0.625,0.0937 1.20313,0.3125 l 0,1.54688 q -0.59375,-0.3125 -1.23438,-0.45313 -0.625,-0.15625 -1.28125,-0.15625 -0.625,0 -1.1875,0.25 -0.54687,0.23438 -0.96875,0.6875 -0.40625,0.4375 -0.65625,1.07813 -0.23437,0.64062 -0.23437,1.4375 0,1.6875 0.8125,2.53125 0.82812,0.84375 2.28125,0.84375 0.65625,0 1.26562,-0.14063 0.625,-0.15625 1.20313,-0.45312 l 0,1.5 z m 11.13232,-4.39063 q 0,1.09375 -0.3125,2 -0.29687,0.89063 -0.875,1.54688 -0.57812,0.64062 -1.40625,1 -0.82812,0.35937 -1.875,0.35937 -1,0 -1.79687,-0.3125 -0.78125,-0.3125 -1.34375,-0.90625 -0.54688,-0.60937 -0.84375,-1.5 -0.28125,-0.89062 -0.28125,-2.0625 0,-1.07812 0.29687,-1.96875 0.3125,-0.90625 0.875,-1.54687 0.57813,-0.64063 1.40625,-1 0.82813,-0.35938 1.875,-0.35938 1,0 1.79688,0.3125 0.79687,0.3125 1.34375,0.92188 0.5625,0.59375 0.84375,1.48437 0.29687,0.89063 0.29687,2.03125 z m -1.65625,0.0781 q 0,-0.85938 -0.1875,-1.5 -0.1875,-0.65625 -0.54687,-1.07813 -0.34375,-0.4375 -0.85938,-0.65625 -0.5,-0.21875 -1.125,-0.21875 -0.71875,0 -1.23437,0.28125 -0.51563,0.28125 -0.84375,0.76563 -0.32813,0.46875 -0.48438,1.09375 -0.15625,0.625 -0.15625,1.3125 0,0.85937 0.1875,1.51562 0.20313,0.64063 0.54688,1.07813 0.35937,0.42187 0.85937,0.64062 0.5,0.21875 1.125,0.21875 0.73438,0 1.25,-0.28125 0.51563,-0.28125 0.84375,-0.75 0.32813,-0.46875 0.46875,-1.09375 0.15625,-0.64062 0.15625,-1.32812 z m 3.33539,0.1875 q 0,-1.1875 0.3125,-2.10938 0.32813,-0.92187 0.92188,-1.54687 0.60937,-0.64063 1.4375,-0.96875 0.84375,-0.32813 1.875,-0.32813 0.45312,0 0.875,0.0625 0.4375,0.0469 0.85937,0.17188 l 0,-3.921884 1.625,0 0,13.109384 -1.45312,0 -0.0625,-1.76563 q -0.67188,0.98438 -1.46875,1.46875 -0.78125,0.46875 -1.70313,0.46875 -0.79687,0 -1.40625,-0.32812 -0.59375,-0.34375 -1,-0.95313 -0.40625,-0.60937 -0.60937,-1.45312 -0.20313,-0.85938 -0.20313,-1.90625 z m 1.64063,-0.0937 q 0,1.6875 0.5,2.51562 0.5,0.82813 1.40625,0.82813 0.60937,0 1.29687,-0.54688 0.6875,-0.54687 1.4375,-1.625 l 0,-4.3125 q -0.40625,-0.1875 -0.89062,-0.28125 -0.48438,-0.10937 -0.95313,-0.10937 -1.3125,0 -2.0625,0.85937 -0.73437,0.84375 -0.73437,2.67188 z m 16.96045,-0.59375 q 0,0.34375 -0.0156,0.57812 -0.0156,0.23438 -0.0312,0.4375 l -6.53125,0 q 0,1.4375 0.79688,2.20313 0.79687,0.76562 2.29687,0.76562 0.40625,0 0.8125,-0.0312 0.40625,-0.0469 0.78125,-0.0937 0.39063,-0.0625 0.73438,-0.125 0.34375,-0.0781 0.64062,-0.15625 l 0,1.32813 q -0.65625,0.1875 -1.48437,0.29687 -0.82813,0.125 -1.71875,0.125 -1.20313,0 -2.0625,-0.32812 -0.85938,-0.32813 -1.42188,-0.9375 -0.54687,-0.625 -0.8125,-1.51563 -0.26562,-0.89062 -0.26562,-2.03125 0,-0.98437 0.28125,-1.85937 0.29687,-0.875 0.82812,-1.53125 0.54688,-0.67188 1.32813,-1.0625 0.79687,-0.39063 1.79687,-0.39063 0.98438,0 1.73438,0.3125 0.75,0.29688 1.26562,0.85938 0.51563,0.5625 0.78125,1.375 0.26563,0.79687 0.26563,1.78125 z m -1.6875,-0.21875 q 0.0312,-0.625 -0.125,-1.14063 -0.14063,-0.51562 -0.45313,-0.89062 -0.3125,-0.375 -0.78125,-0.57813 -0.45312,-0.20312 -1.07812,-0.20312 -0.51563,0 -0.95313,0.20312 -0.4375,0.20313 -0.76562,0.57813 -0.3125,0.35937 -0.5,0.89062 -0.1875,0.51563 -0.23438,1.14063 l 4.89063,0 z m 4.44476,-3.9375 1.48438,0 0.0469,1.71875 q 0.82813,-1 1.625,-1.4375 0.79688,-0.45313 1.625,-0.45313 1.4375,0 2.1875,0.9375 0.75,0.9375 0.6875,2.78125 l -1.625,0 q 0.0156,-1.21875 -0.375,-1.76562 -0.375,-0.5625 -1.10937,-0.5625 -0.32813,0 -0.65625,0.125 -0.32813,0.10937 -0.6875,0.375 -0.34375,0.25 -0.73438,0.65625 -0.39062,0.39062 -0.82812,0.95312 l 0,5.98438 -1.64063,0 0,-9.3125 z" />
  <path
     style="fill:#000000;fill-opacity:0;fill-rule:nonzero"
     inkscape:connector-curvature="0"
     id="path133"
     d="m 174.00803,202.6693 -18.69881,0 0,148.35432 842.99457,0 0,-148.29134 -17.96502,0" />
  <g
     id="g5198">
    <path
       d="m 194.46483,105.96779 112.24609,0 0,191.19875 -112.24609,0 z"
       id="path23"
       inkscape:connector-curvature="0"
       style="fill:#d6d7ef;stroke:#000000;stroke-width:1.29999995;stroke-linecap:butt;stroke-linejoin:round;stroke-miterlimit:10;stroke-dasharray:none" />
    <text
       id="text4861"
       y="189.07108"
       x="250.43748"
       style="font-style:normal;font-variant:normal;font-weight:normal;font-stretch:normal;line-height:0%;font-family:monospace;-inkscape-font-specification:Monospace;text-align:center;letter-spacing:0px;word-spacing:0px;text-anchor:middle;fill:#000000;fill-opacity:1;stroke:none"
       xml:space="preserve"><tspan
         y="189.07108"
         x="250.43748"
         id="tspan4863"
         sodipodi:role="line"
         style="font-size:14px;line-height:1.25;font-family:monospace">Layer 1</tspan><tspan
         id="tspan4865"
         y="206.57108"
         x="254.63475"
         sodipodi:role="line"
         style="font-size:14px;line-height:1.25;font-family:monospace"> </tspan><tspan
         id="tspan4867"
         y="224.07108"
         x="250.43748"
         sodipodi:role="line"
         style="font-size:14px;line-height:1.25;font-family:monospace">1024 Nodes</tspan></text>
  </g>
  <path
     style="fill:#000000;fill-opacity:0;fill-rule:nonzero"
     inkscape:connector-curvature="0"
     id="path137"
     d="m 980.33875,202.6693 39.96855,0" />
  <path
     style="stroke:#000000;stroke-width:2.09690356;stroke-linecap:butt;stroke-linejoin:round;stroke-miterlimit:10;stroke-dasharray:none"
     inkscape:connector-curvature="0"
     id="path139"
     d="m 967.61722,202.6693 46.34948,0" />
  <path
     style="fill:#000000;fill-rule:evenodd;stroke:#000000;stroke-width:3.99999999;stroke-linecap:butt;stroke-miterlimit:10;stroke-dasharray:none"
     inkscape:connector-curvature="0"
     id="path141"
     d="m 1014.3072,204.32103 4.5381,-1.65173 -4.5381,-1.65174 z" />
  <path
     style="fill:#000000;fill-opacity:0;fill-rule:nonzero"
     inkscape:connector-curvature="0"
     id="path143"
     d="m 515.4803,313.5223 63.74805,0 0,34.04724 -63.74805,0 z" />
  <path
     style="fill:#000000;fill-opacity:0;fill-rule:nonzero"
     inkscape:connector-curvature="0"
     id="path147"
     d="m 486.42258,351.02362 103.90549,0 0,34.04724 -103.90549,0 z" />
  <text
     xml:space="preserve"
     style="font-style:normal;font-weight:normal;line-height:0%;font-family:sans-serif;letter-spacing:0px;word-spacing:0px;fill:#bc2122;fill-opacity:1;stroke:none"
     x="-202.53862"
     y="93.437851"
     id="text3780"
     transform="matrix(0,-1.0178306,0.98248177,0,0,0)"><tspan
       sodipodi:role="line"
       x="-198.47873"
       y="93.437851"
       style="font-style:normal;font-variant:normal;font-weight:bold;font-stretch:normal;font-size:13.54179096px;line-height:1.25;font-family:monospace;-inkscape-font-specification:'Monospace Bold';text-align:center;text-anchor:middle;fill:#bc2122"
       id="tspan3058">Generalized Urban </tspan><tspan
       sodipodi:role="line"
       x="-202.53862"
       y="110.36509"
       style="font-style:normal;font-variant:normal;font-weight:bold;font-stretch:normal;font-size:13.54179096px;line-height:1.25;font-family:monospace;-inkscape-font-specification:'Monospace Bold';text-align:center;text-anchor:middle;fill:#bc2122"
       id="tspan3632">Target Database</tspan></text>
  <text
     xml:space="preserve"
     style="font-style:normal;font-weight:normal;line-height:0%;font-family:sans-serif;letter-spacing:0px;word-spacing:0px;fill:#000000;fill-opacity:1;stroke:none"
     x="575.89209"
     y="374.37051"
     id="text3982"
     transform="translate(0,-2.2779706e-6)"><tspan
       sodipodi:role="line"
       id="tspan3984"
       x="575.89209"
       y="374.37051"
       style="font-size:12px;line-height:1.25;font-family:sans-serif"> </tspan></text>
  <text
     xml:space="preserve"
     style="font-style:normal;font-weight:normal;line-height:0%;font-family:sans-serif;letter-spacing:0px;word-spacing:0px;fill:#55679e;fill-opacity:1;stroke:none"
     x="156.21616"
     y="401.02646"
     id="text3986"><tspan
       sodipodi:role="line"
       id="tspan3988"
       x="156.21616"
       y="401.02646"
       style="font-style:normal;font-variant:normal;font-weight:normal;font-stretch:normal;font-size:14px;line-height:1.25;font-family:monospace;-inkscape-font-specification:Monospace;fill:#000080;fill-opacity:1">Training Phase  (<tspan
   style="-inkscape-font-specification:'Cambria Math';font-family:'Cambria Math';font-weight:normal;font-style:normal;font-stretch:normal;font-variant:normal"
   id="tspan4592">X = X'</tspan>)</tspan></text>
  <text
     xml:space="preserve"
     style="font-style:normal;font-weight:normal;line-height:0%;font-family:sans-serif;letter-spacing:0px;word-spacing:0px;fill:#000000;fill-opacity:1;stroke:none"
     x="124.60098"
     y="208.23589"
     id="text3990"><tspan
       sodipodi:role="line"
       id="tspan3992"
       x="124.60098"
       y="208.23589"
       style="font-style:normal;font-variant:normal;font-weight:bold;font-stretch:normal;font-size:18px;line-height:1.25;font-family:'Cambria Math';-inkscape-font-specification:'Cambria Math Bold'">X</tspan></text>
  <g
     id="g5191"
     transform="translate(-2.9587402,0)">
    <path
       d="m 331.20713,127.94242 108.28391,0 0,147.24949 -108.28391,0 z"
       id="path33"
       inkscape:connector-curvature="0"
       style="fill:#d6d7ef;stroke:#000000;stroke-width:1.40901649;stroke-linecap:butt;stroke-linejoin:round" />
    <text
       id="text4861-4"
       y="189.16336"
       x="385.55075"
       style="font-style:normal;font-variant:normal;font-weight:normal;font-stretch:normal;line-height:0%;font-family:monospace;-inkscape-font-specification:Monospace;text-align:center;letter-spacing:0px;word-spacing:0px;text-anchor:middle;fill:#000000;fill-opacity:1;stroke:none"
       xml:space="preserve"><tspan
         y="189.16336"
         x="385.55075"
         id="tspan4863-8"
         sodipodi:role="line"
         style="font-size:14px;line-height:1.25;font-family:monospace">Layer 2</tspan><tspan
         id="tspan4865-1"
         y="206.66336"
         x="389.74802"
         sodipodi:role="line"
         style="font-size:14px;line-height:1.25;font-family:monospace"> </tspan><tspan
         id="tspan4867-6"
         y="224.16336"
         x="385.55075"
         sodipodi:role="line"
         style="font-size:14px;line-height:1.25;font-family:monospace">512 Nodes</tspan></text>
  </g>
  <g
     id="g5184"
     transform="translate(-3.8386841,0)">
    <path
       d="m 463.81191,143.3624 108.43917,0 0,116.40953 -108.43917,0 z"
       id="path43"
       inkscape:connector-curvature="0"
       style="fill:#d6d7ef;stroke:#000000;stroke-width:1.25370312;stroke-linecap:butt;stroke-linejoin:round" />
    <text
       id="text4861-4-8"
       y="189.16336"
       x="518.20239"
       style="font-style:normal;font-variant:normal;font-weight:normal;font-stretch:normal;line-height:0%;font-family:monospace;-inkscape-font-specification:Monospace;text-align:center;letter-spacing:0px;word-spacing:0px;text-anchor:middle;fill:#000000;fill-opacity:1;stroke:none"
       xml:space="preserve"><tspan
         y="189.16336"
         x="518.20239"
         id="tspan4863-8-5"
         sodipodi:role="line"
         style="font-size:14px;line-height:1.25;font-family:monospace">Layer 3</tspan><tspan
         id="tspan4865-1-2"
         y="206.66336"
         x="522.39966"
         sodipodi:role="line"
         style="font-size:14px;line-height:1.25;font-family:monospace"> </tspan><tspan
         id="tspan4867-6-1"
         y="224.16336"
         x="518.20239"
         sodipodi:role="line"
         style="font-size:14px;line-height:1.25;font-family:monospace">256 Nodes</tspan></text>
  </g>
  <g
     id="g5177"
     transform="translate(-4.718689,0)">
    <path
       d="m 596.36755,164.62228 108.69293,0 0,73.88976 -108.69293,0 z"
       id="path53"
       inkscape:connector-curvature="0"
       style="fill:#d2e5cc;stroke:#000000;stroke-width:1;stroke-linecap:butt;stroke-linejoin:round" />
    <text
       id="text4861-4-8-9"
       y="189.07106"
       x="650.94983"
       style="font-style:normal;font-variant:normal;font-weight:normal;font-stretch:normal;line-height:0%;font-family:monospace;-inkscape-font-specification:Monospace;text-align:center;letter-spacing:0px;word-spacing:0px;text-anchor:middle;fill:#000000;fill-opacity:1;stroke:none"
       xml:space="preserve"><tspan
         y="189.07106"
         x="650.94983"
         id="tspan4863-8-5-9"
         sodipodi:role="line"
         style="font-size:14px;line-height:1.25;font-family:monospace">Layer 4</tspan><tspan
         id="tspan4865-1-2-6"
         y="206.57106"
         x="655.14709"
         sodipodi:role="line"
         style="font-size:14px;line-height:1.25;font-family:monospace"> </tspan><tspan
         id="tspan4867-6-1-0"
         y="224.07106"
         x="650.94983"
         sodipodi:role="line"
         style="font-size:14px;line-height:1.25;font-family:monospace">64 Nodes</tspan></text>
  </g>
  <g
     id="g5165"
     transform="translate(-5.7626343,0)">
    <path
       d="m 729.34084,143.3624 108.43917,0 0,116.40953 -108.43917,0 z"
       id="path43-8"
       inkscape:connector-curvature="0"
       style="fill:#f9e7e7;stroke:#000000;stroke-width:1.25370312;stroke-linecap:butt;stroke-linejoin:round" />
    <text
       id="text4861-4-8-6"
       y="189.07108"
       x="783.76208"
       style="font-style:normal;font-variant:normal;font-weight:normal;font-stretch:normal;line-height:0%;font-family:monospace;-inkscape-font-specification:Monospace;text-align:center;letter-spacing:0px;word-spacing:0px;text-anchor:middle;fill:#000000;fill-opacity:1;stroke:none"
       xml:space="preserve"><tspan
         y="189.07108"
         x="783.76208"
         id="tspan4863-8-5-4"
         sodipodi:role="line"
         style="font-size:14px;line-height:1.25;font-family:monospace">Layer 5</tspan><tspan
         id="tspan4865-1-2-9"
         y="206.57108"
         x="787.95935"
         sodipodi:role="line"
         style="font-size:14px;line-height:1.25;font-family:monospace"> </tspan><tspan
         id="tspan4867-6-1-9"
         y="224.07108"
         x="783.76208"
         sodipodi:role="line"
         style="font-size:14px;line-height:1.25;font-family:monospace">512 Nodes</tspan></text>
  </g>
  <g
     id="g5158">
    <path
       d="m 853.47723,105.96779 112.24609,0 0,191.19875 -112.24609,0 z"
       id="path23-6"
       inkscape:connector-curvature="0"
       style="fill:#f9e7e7;stroke:#000000;stroke-width:1.29999995;stroke-linecap:butt;stroke-linejoin:round;stroke-miterlimit:10;stroke-dasharray:none" />
    <text
       id="text4861-0"
       y="189.16336"
       x="909.44989"
       style="font-style:normal;font-variant:normal;font-weight:normal;font-stretch:normal;line-height:0%;font-family:monospace;-inkscape-font-specification:Monospace;text-align:center;letter-spacing:0px;word-spacing:0px;text-anchor:middle;fill:#000000;fill-opacity:1;stroke:none"
       xml:space="preserve"><tspan
         y="189.16336"
         x="909.44989"
         id="tspan4863-89"
         sodipodi:role="line"
         style="font-size:14px;line-height:1.25;font-family:monospace">Layer 6</tspan><tspan
         id="tspan4865-3"
         y="206.66336"
         x="913.64716"
         sodipodi:role="line"
         style="font-size:14px;line-height:1.25;font-family:monospace"> </tspan><tspan
         id="tspan4867-1"
         y="224.16336"
         x="909.44989"
         sodipodi:role="line"
         style="font-size:14px;line-height:1.25;font-family:monospace">1024 Nodes</tspan></text>
  </g>
  <text
     xml:space="preserve"
     style="font-style:normal;font-weight:normal;line-height:0%;font-family:sans-serif;letter-spacing:0px;word-spacing:0px;fill:#161650;fill-opacity:1;stroke:none;"
     x="363.82162"
     y="311.48871"
     id="text5069"><tspan
       sodipodi:role="line"
       id="tspan5071"
       x="363.82162"
       y="311.48871"
       style="font-style:normal;font-variant:normal;font-weight:normal;font-stretch:normal;font-size:14px;line-height:1.25;font-family:monospace;-inkscape-font-specification:Monospace;fill:#161650;">Encoder</tspan></text>
  <rect
     style="fill:none;stroke:#f4cece;stroke-width:2.04949808000000022;stroke-linecap:round;stroke-linejoin:bevel;stroke-miterlimit:10;stroke-opacity:1;stroke-dasharray:none;stroke-dashoffset:0"
     id="rect5067-4"
     width="396.20923"
     height="233.14702"
     x="575.12592"
     y="91.028786" />
  <text
     xml:space="preserve"
     style="font-style:normal;font-weight:normal;line-height:0%;font-family:sans-serif;letter-spacing:0px;word-spacing:0px;fill:#550022;fill-opacity:1;stroke:none;"
     x="752.19025"
     y="315.87213"
     id="text5205"><tspan
       sodipodi:role="line"
       id="tspan5207"
       x="752.19025"
       y="315.87213"
       style="font-style:normal;font-variant:normal;font-weight:normal;font-stretch:normal;font-size:14px;line-height:1.25;font-family:monospace;-inkscape-font-specification:Monospace;fill:#550022;fill-opacity:1;">Decoder</tspan></text>
  <text
     xml:space="preserve"
     style="font-style:normal;font-weight:normal;line-height:0%;font-family:sans-serif;letter-spacing:0px;word-spacing:0px;fill:#bc2122;fill-opacity:1;stroke:none"
     x="637.05853"
     y="139.60434"
     id="text3780-9"
     transform="scale(1.0178306,0.98248177)"><tspan
       sodipodi:role="line"
       x="637.05853"
       y="139.60434"
       style="font-style:normal;font-variant:normal;font-weight:bold;font-stretch:normal;font-size:13.54179096px;line-height:1.25;font-family:monospace;-inkscape-font-specification:'Monospace Bold';text-align:center;text-anchor:middle;fill:#bc2122"
       id="tspan3632-0">Representation</tspan><tspan
       sodipodi:role="line"
       x="637.05853"
       y="156.53159"
       style="font-style:normal;font-variant:normal;font-weight:bold;font-stretch:normal;font-size:13.54179096px;line-height:1.25;font-family:monospace;-inkscape-font-specification:'Monospace Bold';text-align:center;text-anchor:middle;fill:#bc2122"
       id="tspan5235">Layer</tspan></text>
  <path
     style="fill:none;stroke:#000000;stroke-width:2;stroke-linecap:butt;stroke-linejoin:miter;stroke-opacity:1;stroke-miterlimit:10;stroke-dasharray:none;marker-end:"
     d="m 646.11214,238.7244 0,172.70568"
     id="path5237"
     inkscape:connector-curvature="0"
     transform="translate(0,-2.2779706e-6)" />
  <path
     style="fill:#000000;fill-rule:evenodd;stroke:#000000;stroke-width:3.99999999;stroke-linecap:butt;stroke-miterlimit:10;stroke-dasharray:none"
     inkscape:connector-curvature="0"
     id="path141-6"
     d="m 644.89875,412.2294 1.65173,4.5381 1.65174,-4.5381 z"
     inkscape:transform-center-x="-22.793644"
     inkscape:transform-center-y="-42.957253" />
  <text
     xml:space="preserve"
     style="font-style:normal;font-weight:normal;line-height:0%;font-family:sans-serif;letter-spacing:0px;word-spacing:0px;fill:#bc2122;fill-opacity:1;stroke:none"
     x="636.60858"
     y="469.86923"
     id="text3780-9-0"
     transform="scale(1.0178306,0.98248177)"><tspan
       sodipodi:role="line"
       x="636.60858"
       y="469.86923"
       style="font-style:normal;font-variant:normal;font-weight:bold;font-stretch:normal;font-size:13.54179096px;line-height:1.25;font-family:monospace;-inkscape-font-specification:'Monospace Bold';text-align:center;text-anchor:middle;fill:#bc2122"
       id="tspan5235-3">Extracted</tspan><tspan
       sodipodi:role="line"
       x="636.60858"
       y="486.79648"
       style="font-style:normal;font-variant:normal;font-weight:bold;font-stretch:normal;font-size:13.54179096px;line-height:1.25;font-family:monospace;-inkscape-font-specification:'Monospace Bold';text-align:center;text-anchor:middle;fill:#bc2122"
       id="tspan5653">Optimum Features</tspan></text>
  <text
     xml:space="preserve"
     style="font-style:normal;font-weight:normal;line-height:0%;font-family:sans-serif;letter-spacing:0px;word-spacing:0px;fill:#000000;fill-opacity:1;stroke:none"
     x="1033.543"
     y="206.73813"
     id="text3990-7"><tspan
       sodipodi:role="line"
       id="tspan3992-8"
       x="1033.543"
       y="206.73813"
       style="font-style:normal;font-variant:normal;font-weight:bold;font-stretch:normal;font-size:18px;line-height:1.25;font-family:'Cambria Math';-inkscape-font-specification:'Cambria Math Bold'">X'</tspan></text>
  <text
     xml:space="preserve"
     style="font-style:normal;font-weight:normal;line-height:0%;font-family:sans-serif;letter-spacing:0px;word-spacing:0px;fill:#000000;fill-opacity:1;stroke:none"
     x="637.98901"
     y="440.93893"
     id="text5676"><tspan
       sodipodi:role="line"
       id="tspan5678"
       x="637.98901"
       y="440.93893"
       style="font-style:normal;font-variant:normal;font-weight:bold;font-stretch:normal;font-size:16px;line-height:1.25;font-family:'Cambria Math';-inkscape-font-specification:'Cambria Math Bold'">W<tspan
   style="font-weight:bold;font-size:16px;font-family:'Cambria Math';-inkscape-font-specification:'Cambria Math Bold';baseline-shift:sub;font-style:normal;font-stretch:normal;font-variant:normal"
   id="tspan5682">r</tspan></tspan></text>
</svg>
